<?xml version="1.0" encoding="UTF-8" standalone="no"?>
<svg
   width="9.9999952"
   height="14.349999"
   viewBox="0 0 9.9999952 14.349999"
   version="1.1"
   id="svg8"
   inkscape:version="1.4.2 (ebf0e940d0, 2025-05-08)"
   sodipodi:docname="ground-earth.svg"
   xml:space="preserve"
   xmlns:inkscape="http://www.inkscape.org/namespaces/inkscape"
   xmlns:sodipodi="http://sodipodi.sourceforge.net/DTD/sodipodi-0.dtd"
   xmlns="http://www.w3.org/2000/svg"
   xmlns:svg="http://www.w3.org/2000/svg"
   xmlns:rdf="http://www.w3.org/1999/02/22-rdf-syntax-ns#"
   xmlns:cc="http://creativecommons.org/ns#"
   xmlns:dc="http://purl.org/dc/elements/1.1/"><sodipodi:namedview
     id="base"
     pagecolor="#ffffff"
     bordercolor="#666666"
     borderopacity="1.0"
     inkscape:pageopacity="0.0"
     inkscape:pageshadow="2"
     inkscape:zoom="16.124999"
     inkscape:cx="16.372094"
     inkscape:cy="13.705427"
     inkscape:document-units="px"
     inkscape:current-layer="layer1"
     showgrid="true"
     units="px"
     inkscape:snap-text-baseline="true"
     inkscape:window-width="1920"
     inkscape:window-height="1011"
     inkscape:window-x="0"
     inkscape:window-y="0"
     inkscape:window-maximized="1"
     inkscape:snap-center="true"
     inkscape:snap-object-midpoints="true"
     inkscape:lockguides="false"
     inkscape:snap-smooth-nodes="true"
     showguides="false"
     inkscape:snap-midpoints="true"
     inkscape:object-nodes="true"
     inkscape:object-paths="true"
     inkscape:snap-bbox="true"
     inkscape:snap-global="true"
     inkscape:snap-others="true"
     inkscape:snap-grids="true"
     inkscape:pagecheckerboard="true"
     inkscape:bbox-paths="true"
     inkscape:bbox-nodes="true"
     inkscape:snap-bbox-edge-midpoints="true"
     inkscape:snap-bbox-midpoints="true"
     inkscape:guide-bbox="true"
     inkscape:snap-intersection-paths="true"
     inkscape:document-rotation="0"
     inkscape:snap-nodes="true"
     inkscape:snap-page="false"
     inkscape:showpageshadow="2"
     inkscape:deskcolor="#d1d1d1"><inkscape:grid
       type="xygrid"
       id="grid2536"
       originx="-50.000014"
       originy="-309.65"
       spacingy="1"
       spacingx="1"
       units="px"
       visible="true" /></sodipodi:namedview><title
     id="title56">Electric Components Library</title><defs
     id="defs2" /><metadata
     id="metadata5"><rdf:RDF><cc:Work
         rdf:about=""><dc:format>image/svg+xml</dc:format><dc:type
           rdf:resource="http://purl.org/dc/dcmitype/StillImage" /><dc:title>Electric Components Library</dc:title><dc:creator><cc:Agent><dc:title>Filip Dominec and contributors</dc:title></cc:Agent></dc:creator><dc:rights><cc:Agent><dc:title>Filip Dominec and contributors</dc:title></cc:Agent></dc:rights><cc:license
           rdf:resource="http://creativecommons.org/publicdomain/zero/1.0/" /><dc:description>A library of SVG symbols to be used in electric and electronic circuit diagrams in Wikimedia Projects.</dc:description><dc:contributor><cc:Agent><dc:title>Filip Dominec (https://commons.wikimedia.org/wiki/User:FDominec)
Omegatron (https://commons.wikimedia.org/wiki/User:Omegatron)
WvBraun (https://commons.wikimedia.org/wiki/User:WvBraun)
Zedh (https://commons.wikimedia.org/wiki/User:Zedh)
Rainglasz (see: Wikimedia Commons)
Guruleninn (see: Wikimedia Commons)
WarX (https://commons.wikimedia.org/wiki/User:WarX)
Spuzzdawg~commonswiki (see: Wikimedia Commons)
Sunspeanzler (https://commons.wikimedia.org/wiki/User:Sunspeanzler)
Tlapicka (see: Wikimedia Commons)
Xorx (https://commons.wikimedia.org/wiki/User:Xorx)
Pemu (https://commons.wikimedia.org/wiki/User:Pemu)
mpan (&lt;https://commons.wikimedia.org/wiki/User:Wikimpan&gt;; &lt;https://mpan.pl/&gt;)
</dc:title></cc:Agent></dc:contributor></cc:Work><cc:License
         rdf:about="http://creativecommons.org/publicdomain/zero/1.0/"><cc:permits
           rdf:resource="http://creativecommons.org/ns#Reproduction" /><cc:permits
           rdf:resource="http://creativecommons.org/ns#Distribution" /><cc:permits
           rdf:resource="http://creativecommons.org/ns#DerivativeWorks" /></cc:License></rdf:RDF></metadata><g
     inkscape:label="Layer 1"
     inkscape:groupmode="layer"
     id="layer1"
     transform="translate(-50.000015,157.9332)"><path
       inkscape:connector-curvature="0"
       id="path3304"
       d="m 50.16223,-148.58098 c -0.093,0.003 -0.16536,0.0789 -0.16211,0.16814 -8e-5,0.003 -8e-5,0.006 0,0.009 v 0.6467 0.0127 0.003 c 0,0.0881 0.0777,0.15823 0.1695,0.15824 v 0 h 0.0106 9.65104 7.6e-4 c 0.0929,-7.2e-4 0.16783,-0.0733 0.16799,-0.1625 v -0.67355 -0.009 c -0.007,-0.0858 -0.0784,-0.15332 -0.16799,-0.15402 h -9.65398 c -0.007,-2.5e-4 -0.0113,-2.5e-4 -0.0166,0 z"
       style="fill:#000000;fill-opacity:1;stroke:none;stroke-width:0.583192;stroke-linecap:square;stroke-linejoin:miter;stroke-miterlimit:0;stroke-dasharray:none;stroke-dashoffset:0;stroke-opacity:1;paint-order:markers fill stroke"
       sodipodi:nodetypes="cccccccccccccccccc" /><path
       style="fill:none;stroke:#000000;stroke-width:0.7;stroke-linecap:square;stroke-linejoin:miter;stroke-dasharray:none;stroke-opacity:1"
       d="m 55.00001,-148.5832 v -9"
       id="path3306"
       sodipodi:nodetypes="cc" /><path
       inkscape:connector-curvature="0"
       id="path3318"
       d="m 52.16212,-146.58022 c -0.093,0.003 -0.16536,0.0789 -0.16211,0.16814 -8e-5,0.003 -8e-5,0.006 0,0.009 v 0.64595 0.0127 0.003 c 0,0.0881 0.0777,0.15823 0.1695,0.15823 v 0 h 0.0106 5.65115 7.6e-4 c 0.0929,-7.2e-4 0.16783,-0.0733 0.16799,-0.1625 v -0.6728 -0.009 c -0.007,-0.0858 -0.0784,-0.15332 -0.16799,-0.15402 h -5.65409 c -0.007,-2.5e-4 -0.0113,-2.5e-4 -0.0166,0 z"
       style="fill:#000000;fill-opacity:1;stroke:none;stroke-width:0.583192;stroke-linecap:square;stroke-linejoin:miter;stroke-miterlimit:0;stroke-dasharray:none;stroke-dashoffset:0;stroke-opacity:1;paint-order:markers fill stroke"
       sodipodi:nodetypes="cccccccccccccccccc" /><path
       inkscape:connector-curvature="0"
       id="path3324"
       d="m 54.16212,-144.58098 c -0.093,0.003 -0.16536,0.0789 -0.16211,0.16814 -8e-5,0.003 -8e-5,0.006 0,0.009 v 0.6467 0.0127 0.003 c 0,0.0881 0.0777,0.15823 0.1695,0.15824 v 0 h 0.0106 1.65115 7.6e-4 c 0.0929,-7.2e-4 0.16783,-0.0733 0.16799,-0.1625 v -0.67355 -0.009 c -0.007,-0.0858 -0.0784,-0.15332 -0.16799,-0.15402 h -1.65409 c -0.007,-2.5e-4 -0.0113,-2.5e-4 -0.0166,0 z"
       style="fill:#000000;fill-opacity:1;stroke:none;stroke-width:0.583192;stroke-linecap:square;stroke-linejoin:miter;stroke-miterlimit:0;stroke-dasharray:none;stroke-dashoffset:0;stroke-opacity:1;paint-order:markers fill stroke"
       sodipodi:nodetypes="cccccccccccccccccc" /></g></svg>
